<svg xmlns="http://www.w3.org/2000/svg" version="1.1" xmlns:xlink="http://www.w3.org/1999/xlink" xmlns:svgjs="http://svgjs.dev/svgjs" width="1000" height="750" viewBox="0 0 1000 750"><rect width="1000" height="750" fill="#ffffff"></rect><g transform="matrix(0.834,0,0,0.834,82.49454545454546,259.44225148584167)"><svg viewBox="0 0 396 110" data-background-color="#ffffff" preserveAspectRatio="xMidYMid meet" height="277" width="1000" xmlns="http://www.w3.org/2000/svg" xmlns:xlink="http://www.w3.org/1999/xlink"><g id="tight-bounds" transform="matrix(1,0,0,1,0.2400000000000091,0.023211769461312315)"><svg viewBox="0 0 395.52 109.95357646107736" height="109.95357646107736" width="395.52"><g><svg viewBox="0 0 586.3774030294416 163.01145989847714" height="109.95357646107736" width="395.52"><g transform="matrix(1,0,0,1,0,22.529080203045687)"><svg viewBox="0 0 395.52 117.95329949238577" height="117.95329949238577" width="395.52"><g id="textblocktransform"><svg viewBox="0 0 395.52 117.95329949238577" height="117.95329949238577" width="395.52" id="textblock"><g><svg viewBox="0 0 395.52 117.95329949238577" height="117.95329949238577" width="395.52"><g transform="matrix(1,0,0,1,0,0)"><svg width="395.52" viewBox="0.95 -35.15 118.19 35.25" height="117.95329949238577" data-palette-color="#1ebbd7"><path d="M17.2 0L1.6 0Q1.35-0.25 1.15-0.65 0.95-1.05 0.95-1.6L0.95-1.6Q0.95-2.05 1.05-2.48 1.15-2.9 1.35-3.4L1.35-3.4 13.3-31.35 4-31.35Q3.35-31.35 2.75-31.33 2.15-31.3 1.8-31.2L1.8-31.2 1.8-34.15Q1.8-35 2.65-35L2.65-35 17.6-35Q17.8-34.75 17.9-34.45 18-34.15 18-33.65L18-33.65Q18-32.8 17.6-31.85L17.6-31.85 5.45-3.65 15.1-3.65Q15.95-3.65 16.7-3.73 17.45-3.8 18.05-4L18.05-4 18.05-0.8Q18.05-0.45 17.88-0.23 17.7 0 17.2 0L17.2 0ZM22.05 0.1L22.05 0.1Q21.65 0.1 20.95 0.05 20.25 0 19.5-0.05L19.5-0.05 28.4-34.45Q28.55-35.15 29.95-35.15L29.95-35.15Q30.45-35.15 30.97-35.1 31.5-35.05 31.85-35L31.85-35 40.8-0.75Q40.9-0.35 40.57-0.13 40.25 0.1 39.05 0.1L39.05 0.1Q38.6 0.1 38.02 0.08 37.45 0.05 36.65 0L36.65 0 31.95-19.7Q31.55-21.4 31.2-23.15 30.85-24.9 30.57-26.53 30.3-28.15 30.2-29.35L30.2-29.35Q30.1-28.15 29.82-26.53 29.55-24.9 29.2-23.15 28.85-21.4 28.4-19.7L28.4-19.7 23.95-0.7Q23.85-0.3 23.55-0.1 23.25 0.1 22.05 0.1ZM36.6-8.9L24.65-8.9 24.65-12.6 36.6-12.6 36.6-8.9ZM49.09-14.2L44.64-14.2Q43.89-14.2 43.84-14.45 43.8-14.7 43.8-15.3L43.8-15.3 43.8-34.05Q43.8-34.2 43.82-34.6 43.84-35 44.39-35L44.39-35 49.05-35Q52.2-35 54.24-33.98 56.3-32.95 57.27-30.78 58.25-28.6 58.25-25.1L58.25-25.1Q58.25-22 57.52-19.93 56.8-17.85 55.52-16.6 54.24-15.35 52.59-14.78 50.95-14.2 49.09-14.2L49.09-14.2ZM43.24 0L43.24 0 43.24-34.2Q43.24-34.6 43.42-34.8 43.59-35 44.09-35L44.09-35 46.49-35Q47.09-35 47.2-34.6 47.3-34.2 47.3-34.2L47.3-34.2 47.3-0.8Q47.3-0.4 47.12-0.25 46.95-0.1 46.12-0.05 45.3 0 43.24 0ZM47.2-31.45L47.2-17.95 49.49-17.95Q50.89-17.95 51.82-18.7 52.74-19.45 53.24-21.13 53.74-22.8 53.74-25.6L53.74-25.6Q53.74-27.35 53.39-28.68 53.05-30 52.17-30.73 51.3-31.45 49.8-31.45L49.8-31.45 47.2-31.45ZM67.09-14.2L62.64-14.2Q61.89-14.2 61.84-14.45 61.79-14.7 61.79-15.3L61.79-15.3 61.79-34.05Q61.79-34.2 61.82-34.6 61.84-35 62.39-35L62.39-35 67.04-35Q70.19-35 72.24-33.98 74.29-32.95 75.27-30.78 76.24-28.6 76.24-25.1L76.24-25.1Q76.24-22 75.52-19.93 74.79-17.85 73.52-16.6 72.24-15.35 70.59-14.78 68.94-14.2 67.09-14.2L67.09-14.2ZM61.24 0L61.24 0 61.24-34.2Q61.24-34.6 61.42-34.8 61.59-35 62.09-35L62.09-35 64.49-35Q65.09-35 65.19-34.6 65.29-34.2 65.29-34.2L65.29-34.2 65.29-0.8Q65.29-0.4 65.12-0.25 64.94-0.1 64.12-0.05 63.29 0 61.24 0ZM65.19-31.45L65.19-17.95 67.49-17.95Q68.89-17.95 69.82-18.7 70.74-19.45 71.24-21.13 71.74-22.8 71.74-25.6L71.74-25.6Q71.74-27.35 71.39-28.68 71.04-30 70.17-30.73 69.29-31.45 67.79-31.45L67.79-31.45 65.19-31.45ZM79.24 0L79.24 0 79.24-33.15Q79.24-34.1 79.44-34.48 79.64-34.85 80.52-34.93 81.39-35 83.39-35L83.39-35 83.39-0.8Q83.39-0.4 83.19-0.25 82.99-0.1 82.17-0.05 81.34 0 79.24 0ZM91.04 0L87.74 0 87.74-34.2Q87.74-34.2 87.86-34.6 87.99-35 88.59-35L88.59-35 100.59-35Q100.59-33.35 100.54-32.63 100.49-31.9 100.34-31.7 100.19-31.5 99.84-31.5L99.84-31.5 91.79-31.5 91.79-0.8Q91.79-0.8 91.74-0.4 91.69 0 91.04 0L91.04 0ZM98.59-17.2L88.29-17.2 88.29-20.9 99.34-20.9Q99.34-18.6 99.24-17.9 99.14-17.2 98.59-17.2L98.59-17.2ZM119.14-35L111.49-11.7 109.19-11.75 101.44-34.35Q101.34-34.7 101.51-34.83 101.69-34.95 102.69-34.98 103.69-35 106.04-35L106.04-35 108.04-28.15Q108.39-26.95 108.81-25.38 109.24-23.8 109.61-22.25 109.99-20.7 110.21-19.48 110.44-18.25 110.49-17.7L110.49-17.7Q110.54-18.25 110.79-19.48 111.04-20.7 111.41-22.25 111.79-23.8 112.21-25.38 112.64-26.95 112.99-28.15L112.99-28.15 114.74-34.25Q114.84-34.65 115.06-34.8 115.29-34.95 116.19-34.98 117.09-35 119.14-35L119.14-35ZM108.34 0L108.34 0 108.34-17.1 112.39-17.1 112.39-0.8Q112.39-0.4 112.21-0.25 112.04-0.1 111.21-0.05 110.39 0 108.34 0Z" opacity="1" transform="matrix(1,0,0,1,0,0)" fill="#1ebbd7" class="wordmark-text-0" data-fill-palette-color="primary" id="text-0"></path></svg></g></svg></g></svg></g></svg></g><g transform="matrix(1,0,0,1,423.36594313096447,0)"><svg viewBox="0 0 163.01145989847714 163.01145989847714" height="163.01145989847714" width="163.01145989847714"><g data-palette-color="#1ebbd7"><rect width="44.556465705583754" height="163.01145989847714" fill="#1ebbd7" stroke="transparent" data-fill-palette-color="accent" x="0" fill-opacity="1"></rect><rect width="44.556465705583754" height="163.01145989847714" fill="#1ebbd7" stroke="transparent" data-fill-palette-color="accent" x="54.337153299492385" fill-opacity="0.75"></rect><rect width="44.556465705583754" height="163.01145989847714" fill="#1ebbd7" stroke="transparent" data-fill-palette-color="accent" x="108.67430659898477" fill-opacity="0.5"></rect></g></svg></g></svg></g><defs></defs></svg><rect width="395.52" height="109.95357646107736" fill="none" stroke="none" visibility="hidden"></rect></g></svg></g></svg>